<svg xmlns="http://www.w3.org/2000/svg" width="14.999" height="15" viewBox="0 0 14.999 15">
  <path id="Trazado_37" data-name="Trazado 37" d="M30.5,169.656V177H34V167H30.5Zm14.917.415c-.231-1.9-1.094-3.074-3.653-3.074a3.124,3.124,0,0,0-2.936,1.353h-.047V167H36v10h2.916v-4.96c0-1.307.26-2.566,1.86-2.566s1.731,1.49,1.731,2.66V177h3v-5.493a11.558,11.558,0,0,0-.082-1.436ZM32.251,162A1.748,1.748,0,1,0,34,163.748,1.747,1.747,0,0,0,32.251,162Z" transform="translate(-30.502 -162)" fill="#fff" fill-rule="evenodd"/>
</svg>
