<svg xmlns="http://www.w3.org/2000/svg" width="260" height="112" viewBox="0 0 260 112">
  <g id="marca" transform="translate(-10 -8.208)">
    <g id="Grupo_403" data-name="Grupo 403" transform="translate(10 8.208)">
      <g id="Grupo_400" data-name="Grupo 400">
        <path id="Trazado_48" data-name="Trazado 48" d="M65.846,27.275c-1-2.223-6.994-14.244-9.1-18.461a1.093,1.093,0,0,0-1.975.042C50.718,17.071,31.422,56.181,30.961,57.1a.561.561,0,0,0,.841.7c7.741-5.971,31.97-24.712,33.023-25.539A4.221,4.221,0,0,0,65.846,27.275Z" transform="translate(-0.707 -8.208)" fill="#5a5a5a"/>
        <path id="Trazado_49" data-name="Trazado 49" d="M112.894,103.333c-.367-.867-32.584-66.08-33.209-67.285a3.883,3.883,0,0,0-5.142-1.855C62.862,39.492,32.825,53.51,31.9,53.948a4.221,4.221,0,0,0-2.18,2.17c-.472.955-6.3,12.611-7.159,14.4a4.337,4.337,0,0,0,1.093,5.129C24.818,76.659,51.2,99.6,60.348,107.557a4.482,4.482,0,0,0,3.267,1.2H109.37A3.869,3.869,0,0,0,112.894,103.333Z" transform="translate(-4.6 3.244)" fill="#5a5a5a"/>
        <path id="Trazado_50" data-name="Trazado 50" d="M18.129,73.745c-.792,1.608-5.69,11.534-8.017,16.237a1.4,1.4,0,0,0,1.273,1.969H54.639a1.383,1.383,0,0,0,.612-2.616C45.373,84.128,24.84,72.749,23.566,72.068A4.027,4.027,0,0,0,18.129,73.745Z" transform="translate(-10 20.049)" fill="#5a5a5a"/>
      </g>
      <g id="Grupo_401" data-name="Grupo 401" transform="translate(201.397 42.011)">
        <path id="Rect치ngulo_185" data-name="Rect치ngulo 185" d="M.794,0h10.68a.795.795,0,0,1,.795.795V5.427a.795.795,0,0,1-.795.795H.795A.795.795,0,0,1,0,5.427V.794A.794.794,0,0,1,.794,0Z" transform="translate(10.341 12.41)" fill="#f0552d"/>
        <path id="Trazado_51" data-name="Trazado 51" d="M175,63.976H157.311a1.249,1.249,0,0,1-1.245-1.245v-18a1.248,1.248,0,0,1,1.245-1.244h17.622a1.249,1.249,0,0,0,1.245-1.245V38.51a1.249,1.249,0,0,0-1.245-1.245H150.674a1.249,1.249,0,0,0-1.245,1.245V68.953a1.249,1.249,0,0,0,1.245,1.244H175a1.249,1.249,0,0,0,1.245-1.244V65.219A1.248,1.248,0,0,0,175,63.976Z" transform="translate(-149.429 -37.265)" fill="#f0552d"/>
      </g>
      <g id="Grupo_402" data-name="Grupo 402" transform="translate(233.252 42.03)">
        <path id="Rect치ngulo_186" data-name="Rect치ngulo 186" d="M.795,0h10.68a.795.795,0,0,1,.795.795V5.428a.795.795,0,0,1-.795.795H.794A.794.794,0,0,1,0,5.428V.795A.795.795,0,0,1,.795,0Z" transform="translate(10.341 12.41)" fill="#f0552d"/>
        <path id="Trazado_52" data-name="Trazado 52" d="M196.987,37.278H172.727a1.248,1.248,0,0,0-1.245,1.244V68.939a1.249,1.249,0,0,0,1.245,1.245h4.147a1.249,1.249,0,0,0,1.245-1.245V44.744a1.247,1.247,0,0,1,1.244-1.244h17.624a1.249,1.249,0,0,0,1.244-1.245V38.522A1.246,1.246,0,0,0,196.987,37.278Z" transform="translate(-171.482 -37.278)" fill="#f0552d"/>
      </g>
      <path id="Trazado_53" data-name="Trazado 53" d="M130.52,69.422S114.922,37.8,114.838,37.7a3.041,3.041,0,0,0-4.788-.071c-.108.117-15.744,31.786-15.744,31.786a.709.709,0,0,0,.688,1.114l4.563.038a2.207,2.207,0,0,0,1.8-1.115l9.906-21.475c.51-1.02,1.47-1.023,1.983,0l3.877,8.282H112a1.875,1.875,0,0,0-1.655,1.17L108.99,61.3a.837.837,0,0,0,.835,1.184h10.224l3.264,6.942a2.226,2.226,0,0,0,1.807,1.111h4.713A.708.708,0,0,0,130.52,69.422Z" transform="translate(27.417 4.407)" fill="#f0552d"/>
      <path id="Trazado_54" data-name="Trazado 54" d="M147.841,61.475a12.414,12.414,0,0,0-4.146-24.2l-21.288.017a1.247,1.247,0,0,0-1.244,1.244V68.957a1.248,1.248,0,0,0,1.244,1.245h4.148a1.25,1.25,0,0,0,1.245-1.245V44.763a1.248,1.248,0,0,1,1.244-1.245l14.342-.016a6.223,6.223,0,1,1,0,12.444H132.572a.694.694,0,0,0-.693.693v4.836a.694.694,0,0,0,.693.693h7.149l6.708,7.17a3.292,3.292,0,0,0,2.094.909H155.1c.685,0,.855-.4.378-.893Z" transform="translate(39.406 4.753)" fill="#f0552d"/>
      <path id="Trazado_55" data-name="Trazado 55" d="M113.127,70.434,100.713,37.312S99.5,33.7,96.7,33.7c-2.47,0-3.886,2.965-3.886,2.965L80.946,62.025,69.077,36.659S68.062,33.7,65.193,33.7c-3.023,0-4.017,3.617-4.017,3.617L48.763,70.434a.943.943,0,0,0,.945,1.362h5.1a2.189,2.189,0,0,0,1.93-1.375l8.073-23.41c.261-.757.753-.781,1.091-.056L76.863,70.426a4.344,4.344,0,0,0,7.992.3c.055-.074,11.138-23.771,11.138-23.771.339-.725.831-.7,1.092.056l8.072,23.41a2.191,2.191,0,0,0,1.931,1.375h5.095A.943.943,0,0,0,113.127,70.434Z" transform="translate(7.189 3.158)" fill="#f0552d"/>
    </g>
    <g id="Grupo_404" data-name="Grupo 404" transform="translate(172.318 92.557)">
      <path id="Trazado_56" data-name="Trazado 56" d="M139.546,72.582H134.46a.463.463,0,0,0-.464.462v2.284a.464.464,0,0,0,.464.464h1.528a.464.464,0,0,1,.464.462v2.72a.464.464,0,0,1-.464.464h-7.515a2.577,2.577,0,0,1-2.568-2.568V72.333a2.575,2.575,0,0,1,2.535-2.565h8.729a.644.644,0,0,0,.641-.641V67.2a.644.644,0,0,0-.641-.643l-9.686-.007a5.137,5.137,0,0,0-5.108,5.136v5.8a5.135,5.135,0,0,0,5.071,5.134.422.422,0,0,0,.136.029l11.938-.055a.464.464,0,0,0,.462-.462l.026-9.086A.463.463,0,0,0,139.546,72.582Z" transform="translate(-122.374 -66.551)" fill="#5a5a5a"/>
      <path id="Trazado_57" data-name="Trazado 57" d="M163.046,66.551H152.665a3.555,3.555,0,0,0-3.545,3.543v8.915a3.556,3.556,0,0,0,3.545,3.545h10.381a3.555,3.555,0,0,0,3.545-3.545V70.094A3.554,3.554,0,0,0,163.046,66.551Zm.3,11.277A1.776,1.776,0,0,1,161.57,79.6h-7.429a1.777,1.777,0,0,1-1.772-1.772V71.276a1.777,1.777,0,0,1,1.772-1.772h7.429a1.776,1.776,0,0,1,1.772,1.772Z" transform="translate(-110.487 -66.551)" fill="#5a5a5a"/>
      <path id="Trazado_58" data-name="Trazado 58" d="M187.422,66.551l-12.4.042a.643.643,0,0,0-.643.641V81.97a.644.644,0,0,0,.643.641h2.246a.644.644,0,0,0,.643-.641V70.445a.644.644,0,0,1,.641-.643h6.715a3.112,3.112,0,0,1,3.211,2.981,3.061,3.061,0,0,1-2.669,2.929h-5.623a.56.56,0,0,0-.559.559v2.093a.56.56,0,0,0,.559.559h7.237c2.516,0,4.576-2.783,4.576-6.187S189.939,66.551,187.422,66.551Z" transform="translate(-99.261 -66.551)" fill="#5a5a5a"/>
      <path id="Trazado_59" data-name="Trazado 59" d="M153.29,72.709c0-3.387-2.05-6.158-4.556-6.158l-12.343.042a.64.64,0,0,0-.638.638V81.9a.642.642,0,0,0,.638.64h2.236a.642.642,0,0,0,.64-.64V70.426a.641.641,0,0,1,.638-.64h6.685a3.1,3.1,0,0,1,3.2,2.967,3.047,3.047,0,0,1-2.656,2.918h-5.6a.557.557,0,0,0-.556.555V78.31a.558.558,0,0,0,.556.556h2.454l4.073,3.121a2.189,2.189,0,0,0,1.352.519l3.065.019c.352,0,.484-.243.293-.537L148.7,78.862c.014,0,.026,0,.039,0C151.24,78.866,153.29,76.1,153.29,72.709Z" transform="translate(-116.428 -66.551)" fill="#5a5a5a"/>
      <path id="Trazado_60" data-name="Trazado 60" d="M176.953,66.594h-2.271a.572.572,0,0,0-.558.581V77.766a1.846,1.846,0,0,1-1.83,1.686H167.91a1.871,1.871,0,0,1-1.865-1.771V67.113a.565.565,0,0,0-.563-.562h-2.259a.565.565,0,0,0-.563.562V78.94c0,1.989,2.89,3.615,6.421,3.615h2.045c5.121,0,6.384-3.283,6.384-3.381v-12A.57.57,0,0,0,176.953,66.594Z" transform="translate(-104.47 -66.551)" fill="#5a5a5a"/>
    </g>
  </g>
</svg>
