<svg xmlns="http://www.w3.org/2000/svg" width="18.433" height="25" viewBox="0 0 18.433 25">
  <path id="icon" d="M-4752.86,1412.094a8.781,8.781,0,0,1,4.629,1.287,9.417,9.417,0,0,1,3.354,3.455,9.32,9.32,0,0,1,1.232,4.68,12.777,12.777,0,0,1-1.486,5.547q-1.49,2.325-3.4,4.832t-3.07,3.852l-1.162,1.348c-.137-.123-.319-.3-.551-.531s-.684-.71-1.356-1.437-1.324-1.467-1.957-2.222-1.34-1.676-2.119-2.762a36.677,36.677,0,0,1-2.051-3.161,12.978,12.978,0,0,1-1.285-5.342,9.478,9.478,0,0,1,1.234-4.722,9.577,9.577,0,0,1,3.365-3.5A8.616,8.616,0,0,1-4752.86,1412.094Zm-.021,14.255a5.068,5.068,0,0,0,3.722-1.54,5.074,5.074,0,0,0,1.539-3.722,5.042,5.042,0,0,0-1.539-3.712,5.1,5.1,0,0,0-3.722-1.531,5.043,5.043,0,0,0-3.71,1.54,5.055,5.055,0,0,0-1.529,3.7,5.068,5.068,0,0,0,1.539,3.722A5.043,5.043,0,0,0-4752.882,1426.349Z" transform="translate(4762.078 -1412.094)" fill="#e6e6e6"/>
</svg>
