<svg xmlns="http://www.w3.org/2000/svg" width="16.364" height="12" viewBox="0 0 16.364 12">
  <path id="Trazado_36" data-name="Trazado 36" d="M43.93,37.591a3.813,3.813,0,0,0-.657-1.694,2.336,2.336,0,0,0-1.629-.727C39.355,35,35.921,35,35.921,35H35.9s-3.425,0-5.714.169a2.334,2.334,0,0,0-1.641.727,3.828,3.828,0,0,0-.654,1.694,25.988,25.988,0,0,0-.169,2.748v1.3a25.571,25.571,0,0,0,.169,2.75,3.891,3.891,0,0,0,.654,1.7,2.677,2.677,0,0,0,1.81.727c1.305.134,5.562.178,5.562.178s3.434-.017,5.722-.178a2.29,2.29,0,0,0,1.629-.727,3.875,3.875,0,0,0,.657-1.7,26.886,26.886,0,0,0,.161-2.75v-1.3a27.324,27.324,0,0,0-.161-2.748Zm-5.285,3.228L34.219,43.2V38.414l2,1.092Z" transform="translate(-27.727 -35)" fill="#fff" fill-rule="evenodd"/>
</svg>
